<?xml version="1.0" encoding="UTF-8"?>
<svg xmlns="http://www.w3.org/2000/svg" viewBox="0 0 1200 630" width="1200" height="630" fill="none">
  <defs>
    <radialGradient id="bg2" cx="35%" cy="50%" r="80%">
      <stop offset="0%" stop-color="#0a1a14"/>
      <stop offset="55%" stop-color="#040806"/>
      <stop offset="100%" stop-color="#000"/>
    </radialGradient>
    <linearGradient id="em2" x1="0" y1="0" x2="1" y2="0.6">
      <stop offset="0%" stop-color="#34d399"/>
      <stop offset="55%" stop-color="#10b981"/>
      <stop offset="100%" stop-color="#059669"/>
    </linearGradient>
    <radialGradient id="glow2" cx="20%" cy="50%" r="40%">
      <stop offset="0%" stop-color="#10b981" stop-opacity="0.4"/>
      <stop offset="100%" stop-color="#10b981" stop-opacity="0"/>
    </radialGradient>
    <pattern id="grid2" x="0" y="0" width="40" height="40" patternUnits="userSpaceOnUse">
      <path d="M 40 0 L 0 0 0 40" fill="none" stroke="#10b981" stroke-opacity="0.05" stroke-width="0.8"/>
    </pattern>
  </defs>

  <rect width="1200" height="630" fill="url(#bg2)"/>
  <rect width="1200" height="630" fill="url(#grid2)"/>
  <circle cx="240" cy="315" r="240" fill="url(#glow2)"/>

  <!-- Hex mark (left) -->
  <g transform="translate(80,135) scale(0.7)">
    <circle cx="256" cy="256" r="200" stroke="#10b981" stroke-opacity="0.18" stroke-width="1.5" stroke-dasharray="3 5"/>
    <circle cx="256" cy="256" r="140" stroke="#10b981" stroke-opacity="0.28" stroke-width="1.5"/>
    <polygon points="256,80 396,160 396,320 256,400 116,320 116,160" fill="none" stroke="url(#em2)" stroke-width="6" stroke-linejoin="round"/>
    <polygon points="256,108 372,172 372,308 256,372 140,308 140,172" fill="#06120c" fill-opacity="0.55" stroke="#10b981" stroke-opacity="0.35" stroke-width="1.5"/>
    <g fill="url(#em2)">
      <circle cx="256" cy="80" r="9"/>
      <circle cx="396" cy="160" r="9"/>
      <circle cx="396" cy="320" r="9"/>
      <circle cx="256" cy="400" r="9"/>
      <circle cx="116" cy="320" r="9"/>
      <circle cx="116" cy="160" r="9"/>
    </g>
    <g transform="translate(180,160)">
      <rect x="0" y="0" width="152" height="32" rx="6" fill="#10b981"/>
      <rect x="0" y="60" width="120" height="28" rx="6" fill="url(#em2)"/>
      <rect x="0" y="120" width="152" height="32" rx="6" fill="#10b981"/>
      <rect x="0" y="0" width="22" height="152" rx="6" fill="#34d399"/>
    </g>
  </g>

  <!-- Wordmark (right) -->
  <g transform="translate(520,250)">
    <text x="0" y="0" font-family="Playfair Display, Georgia, serif" font-size="120" font-weight="700" fill="#fafafa" letter-spacing="-3">Electric</text>
    <text x="0" y="120" font-family="Playfair Display, Georgia, serif" font-size="120" font-weight="700" font-style="italic" fill="url(#em2)" letter-spacing="-3">EATS</text>
    <text x="0" y="170" font-family="ui-monospace, Menlo, monospace" font-size="20" fill="#10b981" letter-spacing="8" opacity="0.85">ESSENTIAL · AI · TRACKING · SYSTEM</text>
    <text x="0" y="210" font-family="ui-monospace, Menlo, monospace" font-size="14" fill="#737373" letter-spacing="4">EATING IN MINUTES</text>
  </g>

  <!-- Bottom strap -->
  <rect x="0" y="610" width="1200" height="20" fill="url(#em2)" opacity="0.95"/>
</svg>
