<?xml version="1.0" encoding="UTF-8"?>
<svg xmlns="http://www.w3.org/2000/svg" viewBox="0 0 512 512" width="512" height="512" fill="none">
  <!-- Monochrome variant: pure electric green on transparent for tinting / favicon dark/light schemes -->
  <polygon points="256,40 472,160 472,352 256,472 40,352 40,160" fill="none" stroke="#10b981" stroke-width="14" stroke-linejoin="round"/>
  <polygon points="256,80 432,180 432,332 256,432 80,332 80,180" fill="none" stroke="#10b981" stroke-width="3" stroke-opacity="0.4"/>
  <g transform="translate(170,150)">
    <rect x="0" y="0" width="172" height="34" rx="6" fill="#10b981"/>
    <rect x="0" y="68" width="136" height="30" rx="6" fill="#10b981"/>
    <rect x="0" y="138" width="172" height="34" rx="6" fill="#10b981"/>
    <rect x="0" y="0" width="26" height="172" rx="6" fill="#10b981"/>
  </g>
  <g fill="#10b981">
    <circle cx="256" cy="40" r="10"/>
    <circle cx="472" cy="160" r="10"/>
    <circle cx="472" cy="352" r="10"/>
    <circle cx="256" cy="472" r="10"/>
    <circle cx="40" cy="352" r="10"/>
    <circle cx="40" cy="160" r="10"/>
  </g>
</svg>
