<svg width="48" height="48" viewBox="0 0 48 48" fill="none" xmlns="http://www.w3.org/2000/svg">
    <path fill-rule="evenodd" clip-rule="evenodd" d="M16.4077 2.89946C17.1934 2.75697 17.9896 2.68068 18.788 2.67137L18.7734 8.05798e-05C20.2185 0.0186118 21.6543 0.233429 23.0414 0.638646L22.369 3.1467C23.1242 3.3522 23.8597 3.62424 24.5669 3.95961L25.6498 1.6842C26.954 2.30507 28.1671 3.10132 29.2555 4.05085L27.5968 5.9531C28.1849 6.46623 28.7271 7.02977 29.2171 7.63731L31.1814 6.05255C32.0882 7.17501 32.8375 8.41602 33.4085 9.74119L31.0929 10.7366C31.3276 11.2825 31.525 11.8434 31.684 12.4155H34.1578L34.2916 12.3843C34.2941 12.3947 34.2965 12.4051 34.299 12.4155H36.0018C41.8841 12.4155 44.8252 15.7088 44.8252 22.2954V38.1156C44.8246 44.7052 41.8835 48 36.0018 48H21.885L18.356 40.0926H36.0009C37.1772 40.0926 37.7654 39.4336 37.7654 38.1156V22.3008C37.7654 20.9828 37.1772 20.3238 36.0009 20.3238H34.0934C33.7836 21.4174 33.3562 22.4752 32.8182 23.4785L30.6021 22.287C30.2323 22.974 29.8031 23.6273 29.3193 24.2394L31.301 25.8013C30.4073 26.9342 29.3637 27.9403 28.199 28.792L26.7082 26.7557C26.0791 27.2171 25.4109 27.6225 24.711 27.9673L25.8214 30.2308C24.5215 30.8682 23.14 31.3235 21.7158 31.5838L21.2596 29.1013C20.4908 29.2429 19.7111 29.3171 18.9295 29.323L19.0034 31.8493H18.9121C17.481 31.8569 16.0554 31.6706 14.6742 31.2955L15.3366 28.8595C14.5844 28.6558 13.8516 28.3859 13.147 28.053L12.0677 30.3339C10.7624 29.7152 9.54781 28.9211 8.45747 27.9736L10.1125 26.0687C9.5237 25.5576 8.98062 24.9962 8.48941 24.3908L6.52967 25.9802C5.61989 24.8583 4.86783 23.6172 4.29441 22.2915L6.60813 21.2879C6.29992 20.571 6.05567 19.8282 5.87825 19.0682L3.42129 19.6466C3.093 18.2421 2.95552 16.7998 3.01256 15.3585L5.53247 15.4589C5.56393 14.6795 5.66376 13.9044 5.83081 13.1424L3.36746 12.6032C3.67688 11.19 4.17911 9.82606 4.86007 8.54966L7.08439 9.73572C7.45215 9.0479 7.87955 8.39366 8.36167 7.78054L6.3764 6.22224C7.26692 5.08723 8.30773 4.07865 9.47018 3.22425L10.9646 5.25424C11.593 4.79196 12.2606 4.38562 12.9599 4.0399L11.845 1.77909C13.1428 1.13916 14.5224 0.680818 15.9452 0.416944L16.4077 2.89946ZM18.7734 8.05798e-05V0H18.7671C18.7692 2.64344e-05 18.7713 5.32943e-05 18.7734 8.05798e-05ZM26.3624 20.184C27.0841 18.8924 27.4588 17.4357 27.4499 15.9561C27.4413 14.1993 26.8942 12.4872 25.884 11.0499C24.8738 9.61255 23.4479 8.5188 21.7979 7.91557L20.0389 12.3688C20.5863 12.5473 21.0862 12.8475 21.501 13.2469C21.9158 13.6462 22.2348 14.1344 22.434 14.6746C22.6332 15.2149 22.7074 15.7932 22.6512 16.3663C22.5949 16.9393 22.4095 17.4922 22.109 17.9834L26.3624 20.184ZM18.8209 12.1763L18.7871 7.39736C17.533 7.40502 16.2957 7.68697 15.1621 8.22345C14.0285 8.75992 13.026 9.53793 12.2249 10.5029C11.4238 11.4678 10.8436 12.5964 10.5248 13.8094C10.2061 15.0223 10.1566 16.2903 10.3798 17.5245L15.0967 16.738C14.9862 16.186 14.9994 15.6164 15.1351 15.07C15.2709 14.5237 15.526 14.0142 15.882 13.5781C16.238 13.142 16.6862 12.7901 17.1943 12.5478C17.7024 12.3054 18.2579 12.1785 18.8209 12.1763ZM21.1781 24.2789C22.4008 23.9341 23.532 23.3227 24.4902 22.4886L21.2103 18.9943C20.79 19.3273 20.3042 19.5679 19.7846 19.7004C19.2649 19.8329 18.7232 19.8542 18.1948 19.763C17.6663 19.6718 17.1631 19.4702 16.7179 19.1712C16.2727 18.8723 15.8956 18.4827 15.6112 18.0281L11.3879 20.2853C12.0207 21.3869 12.8896 22.3347 13.9324 23.0604C14.9751 23.7862 16.1657 24.2718 17.4185 24.4825C18.6714 24.6932 19.9553 24.6236 21.1781 24.2789Z" fill="#FFDCC0"/>
</svg>