<?xml version="1.0" encoding="UTF-8"?>
<svg width="512" height="512" viewBox="0 0 512 512" xmlns="http://www.w3.org/2000/svg">
  <defs>
    <linearGradient id="bg" x1="0%" y1="0%" x2="100%" y2="100%">
      <stop offset="0%" stop-color="#3b5be8"/>
      <stop offset="100%" stop-color="#7c8cff"/>
    </linearGradient>
  </defs>
  <rect width="512" height="512" rx="108" ry="108" fill="url(#bg)"/>
<g fill="white">
  <circle cx="160" cy="164" r="28"/>
  <circle cx="256" cy="144" r="28"/>
  <circle cx="352" cy="164" r="28"/>
  <circle cx="184" cy="256" r="28"/>
  <circle cx="328" cy="256" r="28"/>
  <circle cx="160" cy="348" r="28"/>
  <circle cx="256" cy="368" r="28"/>
  <circle cx="352" cy="348" r="28"/>
</g>
<g stroke="white" stroke-width="16" stroke-linecap="round" opacity="0.7">
  <line x1="184" y1="176" x2="240" y2="156"/>
  <line x1="272" y1="156" x2="328" y2="176"/>
  <line x1="184" y1="244" x2="240" y2="268"/>
  <line x1="272" y1="244" x2="328" y2="268"/>
  <line x1="172" y1="192" x2="172" y2="320"/>
  <line x1="340" y1="192" x2="340" y2="320"/>
  <line x1="200" y1="280" x2="256" y2="344"/>
  <line x1="312" y1="280" x2="256" y2="344"/>
</g>
</svg>