<svg xmlns="http://www.w3.org/2000/svg" viewBox="0 0 120 120" width="120" height="120" role="img" aria-label="ProMasters Automotive logo">
  <defs>
    <linearGradient id="badge" x1="0" y1="0" x2="0" y2="1">
      <stop offset="0" stop-color="#6E4A0D"/>
      <stop offset="1" stop-color="#5C3D0A"/>
    </linearGradient>
    <linearGradient id="sheen" x1="0" y1="0" x2="1" y2="1">
      <stop offset="0" stop-color="#ffffff"/>
      <stop offset="1" stop-color="#dfe4ec"/>
    </linearGradient>
  </defs>
  <rect x="6" y="6" width="108" height="108" rx="26" fill="url(#badge)"/>
  <rect x="6" y="6" width="108" height="108" rx="26" fill="none" stroke="#E0A21E" stroke-width="3"/>
  <!-- Bespoke condensed "PM" monogram drawn to match the Oswald display face -->
  <g fill="url(#sheen)">
    <!-- P -->
    <path d="M28 34 h17 a13 13 0 0 1 0 26 h-8.5 v18 h-8.5 z M36.5 42 v10 h7.5 a5 5 0 0 0 0 -10 z"/>
    <!-- M -->
    <path d="M62 34 h7.5 l8 18.5 l8 -18.5 H93 v44 h-8 V52.5 l-6.2 14.5 h-5.6 L67 52.5 V78 h-5 z"/>
  </g>
  <rect x="34" y="84" width="52" height="6" rx="3" fill="#E0A21E"/>
</svg>
