<svg xmlns="http://www.w3.org/2000/svg" viewBox="0 0 120 120" width="120" height="120" role="img" aria-label="JJ's Painting Company logo">
  <defs>
    <linearGradient id="badge" x1="0" y1="0" x2="0" y2="1">
      <stop offset="0" stop-color="#9A3320"/>
      <stop offset="1" stop-color="#7A2418"/>
    </linearGradient>
  </defs>
  <rect x="6" y="6" width="108" height="108" rx="26" fill="url(#badge)"/>
  <rect x="6" y="6" width="108" height="108" rx="26" fill="none" stroke="#E0533D" stroke-width="3"/>

  <!-- Bespoke high-contrast serif "JJ" drawn to match the Fraunces display face.
       Each J = top serif slab + tapered vertical stem + hooked foot. -->
  <g fill="#ffffff">
    <!-- ===== First J ===== -->
    <!-- top serif slab -->
    <path d="M30 36 h26 a2 2 0 0 1 2 2 v3 a2 2 0 0 1 -2 2 h-8 v1 h-10 v-1 h-8 a2 2 0 0 1 -2 -2 v-3 a2 2 0 0 1 2 -2 Z"/>
    <!-- stem + hook -->
    <path d="M48 44
             v22
             c0 7.5 -4.6 12.5 -12 12.5
             c-5.2 0 -9.2 -2.6 -11.2 -7.4
             l5.4 -3
             c1.1 2.8 3 4.3 5.4 4.3
             c3.4 0 5.3 -2.4 5.3 -6.6
             v-21.8
             h7.1 Z"/>

    <!-- ===== Second J ===== -->
    <path d="M62 36 h26 a2 2 0 0 1 2 2 v3 a2 2 0 0 1 -2 2 h-8 v1 h-10 v-1 h-8 a2 2 0 0 1 -2 -2 v-3 a2 2 0 0 1 2 -2 Z"/>
    <path d="M80 44
             v22
             c0 7.5 -4.6 12.5 -12 12.5
             c-5.2 0 -9.2 -2.6 -11.2 -7.4
             l5.4 -3
             c1.1 2.8 3 4.3 5.4 4.3
             c3.4 0 5.3 -2.4 5.3 -6.6
             v-21.8
             h7.1 Z"/>

    <!-- ===== apostrophe + s, small, top-right of the second J ===== -->
    <path d="M91 36 c2.4 0 4 1.6 4 3.8 c0 2.6 -1.8 4.6 -4.6 5.6 l-0.8 -1.4 c1.4 -0.6 2.3 -1.5 2.6 -2.6 c-0.2 0.1 -0.5 0.1 -0.8 0.1 c-1.5 0 -2.6 -1.1 -2.6 -2.6 c0 -1.6 1.2 -2.9 2.8 -2.9 Z"/>
  </g>

  <rect x="34" y="84" width="52" height="6" rx="3" fill="#E0533D"/>
</svg>
