<?xml version="1.0" encoding="UTF-8"?>
<svg width="512" height="512" viewBox="0 0 512 512" xmlns="http://www.w3.org/2000/svg">
  <defs>
    <linearGradient id="bg" x1="0%" y1="0%" x2="100%" y2="100%">
      <stop offset="0%" stop-color="#1a6ee8"/>
      <stop offset="100%" stop-color="#38b2f8"/>
    </linearGradient>
  </defs>
  <rect width="512" height="512" rx="108" ry="108" fill="url(#bg)"/>
<g fill="white">
  <rect x="144" y="100" width="224" height="312" rx="10"/>
</g>
<g fill="#222">
  <rect x="164" y="128" width="38" height="30" rx="4"/>
  <rect x="210" y="128" width="38" height="30" rx="4"/>
  <rect x="256" y="128" width="38" height="30" rx="4"/>
  <rect x="302" y="128" width="38" height="30" rx="4"/>
  <rect x="164" y="172" width="38" height="30" rx="4"/>
  <rect x="210" y="172" width="38" height="30" rx="4"/>
  <rect x="256" y="172" width="38" height="30" rx="4"/>
  <rect x="302" y="172" width="38" height="30" rx="4"/>
  <rect x="164" y="216" width="38" height="30" rx="4"/>
  <rect x="210" y="216" width="38" height="30" rx="4"/>
  <rect x="256" y="216" width="38" height="30" rx="4"/>
  <rect x="302" y="216" width="38" height="30" rx="4"/>
  <rect x="164" y="260" width="38" height="30" rx="4"/>
  <rect x="210" y="260" width="38" height="30" rx="4"/>
  <rect x="256" y="260" width="38" height="30" rx="4"/>
  <rect x="302" y="260" width="38" height="30" rx="4"/>
  <rect x="226" y="320" width="60" height="72" rx="5"/>
</g>
</svg>