<?xml version="1.0" encoding="UTF-8"?>
<svg width="512" height="512" viewBox="0 0 512 512" xmlns="http://www.w3.org/2000/svg">
  <defs>
    <linearGradient id="bg" x1="0%" y1="0%" x2="100%" y2="100%">
      <stop offset="0%" stop-color="#c8901a"/>
      <stop offset="100%" stop-color="#e8c84a"/>
    </linearGradient>
  </defs>
  <rect width="512" height="512" rx="108" ry="108" fill="url(#bg)"/>
<g fill="white">
  <circle cx="256" cy="256" r="82"/>
  <g transform="rotate(0 256 256)">
    <rect x="242" y="114" width="28" height="42" rx="5"/>
    <rect x="242" y="356" width="28" height="42" rx="5"/>
    <rect x="114" y="242" width="42" height="28" rx="5"/>
    <rect x="356" y="242" width="42" height="28" rx="5"/>
  </g>
  <g transform="rotate(45 256 256)">
    <rect x="242" y="114" width="28" height="42" rx="5"/>
    <rect x="242" y="356" width="28" height="42" rx="5"/>
    <rect x="114" y="242" width="42" height="28" rx="5"/>
    <rect x="356" y="242" width="42" height="28" rx="5"/>
  </g>
  <circle cx="256" cy="256" r="34" fill="#222"/>
</g>
</svg>