<svg xmlns="http://www.w3.org/2000/svg" viewBox="0 0 120 120" width="120" height="120" role="img" aria-label="KDC Electrical Services">
  <defs>
    <linearGradient id="badge" x1="0" y1="0" x2="0" y2="1">
      <stop offset="0%" stop-color="#262626"/>
      <stop offset="100%" stop-color="#1A1A1A"/>
    </linearGradient>
  </defs>
  <rect x="4" y="4" width="112" height="112" rx="26" fill="url(#badge)" stroke="#F2B705" stroke-width="3"/>
  <path d="M64 22 L42 62 L56 62 L50 98 L80 50 L64 50 Z" fill="#F2B705"/>
  <!-- Bespoke geometric KDC lettering (drawn paths, matching the Sora display face) -->
  <g fill="#FFFFFF">
    <!-- K -->
    <path d="M24 90 h5.4 v6.6 l6.2 -6.6 h6.8 l-8.5 8.9 8.9 9.1 h-7 l-6.4 -6.9 v6.9 h-5.4 z"/>
    <!-- D -->
    <path d="M50 90 h8.3 q9.4 0 9.4 9 q0 9 -9.4 9 h-8.3 z m5.4 4.6 v8.8 h2.5 q4.1 0 4.1 -4.4 q0 -4.4 -4.1 -4.4 z"/>
    <!-- C -->
    <path d="M96.6 96.2 q-2 -1.9 -4.8 -1.9 q-4.4 0 -4.4 4.7 q0 4.7 4.4 4.7 q2.8 0 4.8 -1.9 l0 5.6 q-2.3 1.3 -5.3 1.3 q-9.5 0 -9.5 -9.7 q0 -9.7 9.5 -9.7 q3 0 5.3 1.3 z"/>
  </g>
</svg>
