<?xml version="1.0" encoding="UTF-8"?>
<svg width="512" height="512" viewBox="0 0 512 512" xmlns="http://www.w3.org/2000/svg">
  <defs>
    <linearGradient id="bg" x1="0%" y1="0%" x2="100%" y2="100%">
      <stop offset="0%" stop-color="#0fa86e"/>
      <stop offset="100%" stop-color="#22d3a8"/>
    </linearGradient>
  </defs>
  <rect width="512" height="512" rx="108" ry="108" fill="url(#bg)"/>
<g fill="white">
  <circle cx="132" cy="156" r="26"/>
  <circle cx="380" cy="156" r="26"/>
  <circle cx="132" cy="356" r="26"/>
  <circle cx="380" cy="356" r="26"/>
  <circle cx="256" cy="216" r="30"/>
  <circle cx="256" cy="296" r="30"/>
  <circle cx="184" cy="156" r="14"/>
  <circle cx="328" cy="156" r="14"/>
</g>
<g fill="none" stroke="white" stroke-width="16" stroke-linecap="round">
  <path d="M158 156 L184 156 L184 216 L226 216"/>
  <path d="M286 216 L328 216 L328 156 L354 156"/>
  <path d="M158 356 L184 356 L184 296 L226 296"/>
  <path d="M286 296 L328 296 L328 356 L354 356"/>
  <path d="M256 246 L256 266"/>
</g>
</svg>