<?xml version="1.0" encoding="UTF-8"?>
<svg width="512" height="512" viewBox="0 0 512 512" xmlns="http://www.w3.org/2000/svg">
  <defs>
    <linearGradient id="bg" x1="0%" y1="0%" x2="100%" y2="100%">
      <stop offset="0%" stop-color="#e85a1a"/>
      <stop offset="100%" stop-color="#f8a838"/>
    </linearGradient>
  </defs>
  <rect width="512" height="512" rx="108" ry="108" fill="url(#bg)"/>
<g fill="white">
  <rect x="142" y="92" width="228" height="328" rx="24"/>
  <rect x="162" y="116" width="188" height="76" rx="10" fill="#222"/>
</g>
<g fill="#222">
  <rect x="162" y="212" width="44" height="38" rx="6"/>
  <rect x="214" y="212" width="44" height="38" rx="6"/>
  <rect x="266" y="212" width="44" height="38" rx="6"/>
  <rect x="318" y="212" width="44" height="38" rx="6"/>
  <rect x="162" y="258" width="44" height="38" rx="6"/>
  <rect x="214" y="258" width="44" height="38" rx="6"/>
  <rect x="266" y="258" width="44" height="38" rx="6"/>
  <rect x="318" y="258" width="44" height="38" rx="6"/>
  <rect x="162" y="304" width="44" height="38" rx="6"/>
  <rect x="214" y="304" width="44" height="38" rx="6"/>
  <rect x="266" y="304" width="44" height="38" rx="6"/>
  <rect x="318" y="304" width="44" height="38" rx="6"/>
  <rect x="162" y="350" width="96" height="38" rx="6"/>
  <rect x="266" y="350" width="96" height="38" rx="6"/>
</g>
</svg>