<svg xmlns="http://www.w3.org/2000/svg" viewBox="0 0 120 120" width="120" height="120" role="img" aria-label="Coker Heating & Air logo">
  <defs>
    <linearGradient id="badge" x1="0" y1="0" x2="0" y2="1">
      <stop offset="0%" stop-color="#1d4e72"/>
      <stop offset="100%" stop-color="#143A56"/>
    </linearGradient>
    <linearGradient id="thermal" x1="0" y1="0" x2="1" y2="0">
      <stop offset="0%" stop-color="#E8924A"/>
      <stop offset="50%" stop-color="#F4B06A"/>
      <stop offset="100%" stop-color="#5FAFD8"/>
    </linearGradient>
  </defs>
  <rect x="6" y="6" width="108" height="108" rx="26" fill="url(#badge)"/>
  <rect x="6" y="6" width="108" height="108" rx="26" fill="none" stroke="#2E7DB0" stroke-width="3" stroke-opacity="0.55"/>
  <!-- Bespoke high-contrast serif "CH" monogram, drawn as paths to match the Fraunces display face -->
  <g fill="#ffffff">
    <!-- C: high-contrast serif terminal with thin/thick contrast -->
    <path d="M50.4 33.2c-12.6 0-21.6 9.4-21.6 23.6 0 14.3 9 23.6 21.7 23.6 6.7 0 11.9-2.4 15.7-6.7l-5.5-5.2c-2.6 2.9-5.7 4.4-9.6 4.4-7.2 0-12-5.9-12-16.1 0-10.1 4.8-16 11.9-16 3.7 0 6.7 1.4 9.2 4.1l5.6-5.3c-3.8-4.1-8.9-6.4-15.5-6.4z"/>
    <!-- C serifs -->
    <rect x="44.5" y="32.4" width="13.5" height="3.4" rx="1.7"/>
    <rect x="44.5" y="77.6" width="13.5" height="3.4" rx="1.7"/>
    <!-- H: serif with thick stems, thin crossbar -->
    <path d="M70.5 34h6.2v18.2h13.1V34h6.2v45.9h-6.2V60.7H76.7v19.2h-6.2z"/>
    <!-- H serifs -->
    <rect x="67.4" y="33" width="12.4" height="3.4" rx="1.7"/>
    <rect x="86.9" y="33" width="12.4" height="3.4" rx="1.7"/>
    <rect x="67.4" y="77.4" width="12.4" height="3.4" rx="1.7"/>
    <rect x="86.9" y="77.4" width="12.4" height="3.4" rx="1.7"/>
  </g>
  <rect x="22" y="92" width="76" height="7" rx="3.5" fill="url(#thermal)"/>
</svg>
