<?xml version="1.0" encoding="UTF-8"?>
<svg width="512" height="512" viewBox="0 0 512 512" xmlns="http://www.w3.org/2000/svg">
  <defs>
    <linearGradient id="bg" x1="0%" y1="0%" x2="100%" y2="100%">
      <stop offset="0%" stop-color="#3b5be8"/>
      <stop offset="100%" stop-color="#7c8cff"/>
    </linearGradient>
  </defs>
  <rect width="512" height="512" rx="108" ry="108" fill="url(#bg)"/>
<g fill="white">
  <rect x="102" y="122" width="308" height="268" rx="20"/>
  <rect x="102" y="122" width="308" height="46" rx="20"/>
  <rect x="102" y="148" width="308" height="20"/>
</g>
<g fill="#222">
  <circle cx="136" cy="145" r="9"/>
  <circle cx="164" cy="145" r="9"/>
  <circle cx="192" cy="145" r="9"/>
  <rect x="122" y="186" width="76" height="54" rx="5"/>
  <rect x="208" y="186" width="76" height="54" rx="5"/>
  <rect x="294" y="186" width="76" height="54" rx="5"/>
  <rect x="122" y="250" width="76" height="54" rx="5"/>
  <rect x="208" y="250" width="76" height="54" rx="5"/>
  <rect x="294" y="250" width="76" height="54" rx="5"/>
  <rect x="122" y="314" width="248" height="48" rx="5"/>
</g>
</svg>