<svg width="600" height="294" viewBox="0 0 600 294" fill="none" xmlns="http://www.w3.org/2000/svg">
<g clip-path="url(#clip0_158_1234)">
<path d="M16.7214 283.4C14.2681 283.4 12.1214 282.973 10.2814 282.12C8.46807 281.24 6.94807 280.08 5.72141 278.64C4.49474 277.173 3.57474 275.533 2.96141 273.72C2.34807 271.907 2.04141 270.053 2.04141 268.16C2.04141 266.293 2.34807 264.453 2.96141 262.64C3.57474 260.827 4.49474 259.2 5.72141 257.76C6.94807 256.293 8.46807 255.133 10.2814 254.28C12.1214 253.427 14.2681 253 16.7214 253C18.7747 253 20.5214 253.267 21.9614 253.8C23.4281 254.307 24.6414 254.973 25.6014 255.8C26.5881 256.6 27.3747 257.467 27.9614 258.4C28.5747 259.307 29.0281 260.173 29.3214 261C29.6147 261.8 29.8014 262.467 29.8814 263C29.9881 263.507 30.0414 263.76 30.0414 263.76H23.9214C23.9214 263.76 23.8681 263.587 23.7614 263.24C23.6814 262.867 23.5081 262.427 23.2414 261.92C22.9747 261.387 22.5747 260.867 22.0414 260.36C21.5347 259.853 20.8414 259.427 19.9614 259.08C19.1081 258.707 18.0414 258.52 16.7614 258.52C14.9214 258.52 13.3747 259 12.1214 259.96C10.8947 260.893 9.96141 262.093 9.32141 263.56C8.70807 265.027 8.40141 266.56 8.40141 268.16C8.40141 269.76 8.70807 271.307 9.32141 272.8C9.96141 274.267 10.8947 275.48 12.1214 276.44C13.3747 277.373 14.9214 277.84 16.7614 277.84C18.0414 277.84 19.1081 277.667 19.9614 277.32C20.8414 276.973 21.5347 276.547 22.0414 276.04C22.5747 275.507 22.9747 274.987 23.2414 274.48C23.5081 273.947 23.6814 273.507 23.7614 273.16C23.8681 272.813 23.9214 272.64 23.9214 272.64H30.0414C30.0414 272.64 29.9881 272.907 29.8814 273.44C29.8014 273.947 29.6147 274.613 29.3214 275.44C29.0281 276.24 28.5747 277.107 27.9614 278.04C27.3747 278.947 26.5881 279.813 25.6014 280.64C24.6414 281.44 23.4281 282.107 21.9614 282.64C20.5214 283.147 18.7747 283.4 16.7214 283.4ZM34.3723 283V253.4H46.3723C48.559 253.4 50.4257 253.787 51.9723 254.56C53.5457 255.333 54.7457 256.4 55.5723 257.76C56.4257 259.12 56.8523 260.693 56.8523 262.48C56.8523 264.427 56.359 266.133 55.3723 267.6C54.3857 269.04 52.9857 270.093 51.1723 270.76L57.6123 283H50.7723L44.8923 271.6H40.5323V283H34.3723ZM46.2923 258.72H40.5323V266.56H46.2923C47.6523 266.56 48.719 266.187 49.4923 265.44C50.2657 264.693 50.6523 263.773 50.6523 262.68C50.6523 261.56 50.2657 260.627 49.4923 259.88C48.719 259.107 47.6523 258.72 46.2923 258.72ZM62.8489 283V253.4H83.2489V258.76H69.0089V265.4H81.4089V270.56H69.0089V277.64H83.4489V283H62.8489ZM86.993 283L97.073 253.4H105.273L115.353 283H108.873L106.993 277.2H95.393L93.473 283H86.993ZM97.113 271.84H105.273L101.193 259.48L97.113 271.84ZM123.113 283V258.76H114.033V253.4H138.353V258.76H129.273V283H123.113ZM142.615 283V253.4H163.015V258.76H148.775V265.4H161.175V270.56H148.775V277.64H163.215V283H142.615Z" fill="white"/>
</g>
<g clip-path="url(#clip1_158_1234)">
<path d="M233.165 283V253.4H239.325V265.92L249.925 253.4H257.525L245.165 267.6L257.965 283H250.085L239.325 269.84V283H233.165ZM261.798 283V253.4H282.198V258.76H267.958V265.4H280.358V270.56H267.958V277.64H282.398V283H261.798ZM287.462 283V253.4H307.862V258.76H293.622V265.4H306.022V270.56H293.622V277.64H308.062V283H287.462ZM313.126 283V253.4H325.326C327.753 253.4 329.766 253.88 331.366 254.84C332.993 255.8 334.206 257.04 335.006 258.56C335.833 260.053 336.246 261.613 336.246 263.24C336.246 264.92 335.833 266.52 335.006 268.04C334.206 269.533 332.993 270.76 331.366 271.72C329.766 272.68 327.753 273.16 325.326 273.16H319.286V283H313.126ZM325.326 258.8H319.286V267.8H325.326C326.366 267.8 327.233 267.587 327.926 267.16C328.62 266.707 329.14 266.147 329.486 265.48C329.86 264.787 330.046 264.053 330.046 263.28C330.046 262.533 329.86 261.813 329.486 261.12C329.14 260.427 328.62 259.867 327.926 259.44C327.233 259.013 326.366 258.8 325.326 258.8Z" fill="white"/>
</g>
<g clip-path="url(#clip2_158_1234)">
<path d="M403.884 283V253.4H412.204L418.964 268.64L425.924 253.4H433.964V283H427.884V262.84L421.804 276.08H416.084L409.964 262.76V283H403.884ZM451.432 283.4C449.272 283.4 447.272 282.987 445.432 282.16C443.619 281.333 442.152 280.053 441.032 278.32C439.939 276.587 439.392 274.333 439.392 271.56V253.4H445.552V271.56C445.552 273.267 446.032 274.707 446.992 275.88C447.952 277.027 449.432 277.6 451.432 277.6C453.432 277.6 454.899 277.027 455.832 275.88C456.792 274.707 457.272 273.267 457.272 271.56V253.4H463.472V271.56C463.472 274.333 462.912 276.587 461.792 278.32C460.699 280.053 459.232 281.333 457.392 282.16C455.552 282.987 453.565 283.4 451.432 283.4ZM468.923 283V253.4H475.083V277.64H489.563V283H468.923ZM496.14 283V258.76H487.06V253.4H511.38V258.76H502.3V283H496.14ZM515.642 283V253.4H521.802V283H515.642ZM527.243 283V253.4H539.443C541.87 253.4 543.883 253.88 545.483 254.84C547.11 255.8 548.323 257.04 549.123 258.56C549.95 260.053 550.363 261.613 550.363 263.24C550.363 264.92 549.95 266.52 549.123 268.04C548.323 269.533 547.11 270.76 545.483 271.72C543.883 272.68 541.87 273.16 539.443 273.16H533.403V283H527.243ZM539.443 258.8H533.403V267.8H539.443C540.483 267.8 541.35 267.587 542.043 267.16C542.737 266.707 543.257 266.147 543.603 265.48C543.977 264.787 544.163 264.053 544.163 263.28C544.163 262.533 543.977 261.813 543.603 261.12C543.257 260.427 542.737 259.867 542.043 259.44C541.35 259.013 540.483 258.8 539.443 258.8ZM554.392 283V253.4H560.552V277.64H575.032V283H554.392ZM582.405 283V272.88L572.005 253.4H578.765L585.485 266.56L592.205 253.4H598.965L588.565 272.88V283H582.405Z" fill="white"/>
</g>
<circle cx="198" cy="268" r="8" fill="white"/>
<circle cx="370" cy="268" r="8" fill="white"/>
<g clip-path="url(#clip3_158_1234)">
<g clip-path="url(#clip4_158_1234)">
<path d="M143.651 0.133259H112.443C105.682 0.133259 97.8048 4.04677 92.8421 9.8421L14.2388 101.485L56.1717 101.518L108.38 38.9353L108.313 39.335L97.2219 101.502L138.439 101.651C138.439 101.651 128.463 98.0544 130.562 81.5177L143.651 0.133259Z" fill="white"/>
<path d="M330.185 0.149912H258.342L241.789 101.502L285.371 101.635C285.371 101.635 273.38 95.3565 275.129 81.501L276.028 75.5558H318.044C331.783 75.5558 342.708 63.9652 345.522 46.7457L348.453 28.9434C351.268 11.7073 343.94 0.133259 330.201 0.133259L330.185 0.149912ZM319.61 35.4715L318.71 40.2509C318.144 44.0146 315.68 46.6291 312.632 46.6291H280.758L283.572 29.1099H315.546C318.594 29.1099 320.159 31.7245 319.61 35.4881V35.4715Z" fill="white"/>
<path d="M254.129 0.149925L251.598 15.7707C250.382 23.7309 245.32 29.0933 239.158 29.0933H183.203C181.988 29.0933 180.888 30.2424 180.555 31.8411C180.339 33.4398 180.988 34.7387 182.204 34.8886L223.121 39.6514C229.682 40.4841 234.495 44.3976 236.977 50.3928C238.825 54.8392 239.391 60.4347 238.409 66.7296L236.877 76.7049C234.595 91.3265 225.519 101.268 214.128 101.468C213.978 101.468 142.503 101.468 142.503 101.468L144.051 89.5945C145.683 79.486 153.344 72.7248 161.088 72.5083C161.238 72.5083 208.166 72.5083 208.166 72.5083C209.482 72.5083 210.581 71.3592 210.798 69.6106C211.014 68.0286 210.365 66.7296 209.032 66.5631L165.917 61.6337C163.636 61.3673 161.537 60.7345 159.705 59.7353C152.345 55.8217 148.798 46.5126 150.729 34.6888L152.261 24.8467C155.359 6.31163 167.1 0.149925 175.509 0.149925H254.129Z" fill="white"/>
<path d="M385.939 101.685L342.358 101.535C343.574 101.535 356.064 16.9697 357.196 0.0999107L388.754 0.183177L375.681 81.551C373.932 95.4398 385.923 101.685 385.923 101.685H385.939Z" fill="white"/>
<path d="M401.827 20.1171C403.376 6.1617 391.586 0 391.586 0L482.812 0.149879C496.551 0.149879 503.878 11.7405 501.064 28.96L499.482 38.519C497.001 53.7234 488.108 64.5813 476.617 66.8961L493.853 101.502H462.212L434.734 46.6291H462.995C466.042 46.6291 468.507 44.1644 469.073 40.2509L469.972 35.4714C470.539 31.5579 468.957 29.0932 465.926 29.0932H430.571L422.128 81.501C420.379 95.3399 432.369 101.618 432.369 101.618L388.788 101.468L401.844 20.1005L401.827 20.1171Z" fill="white"/>
<path d="M509.79 19.5509C510.906 5.84529 499.432 0 499.432 0L600.001 0.149879L597.403 15.7873C596.17 23.7475 590.991 29.1099 584.68 29.1099H538.4L536.818 38.519H584.463L582.665 49.3769C581.432 57.3371 576.253 62.6995 569.941 62.6995H533.005L531.323 72.5416H589.542L584.813 101.502H518.033C505.194 101.502 498.333 90.7935 501.03 74.5732L509.807 19.5509H509.79Z" fill="white"/>
<path d="M237.975 172.195L211.562 225.718H181.42L171.711 176.741L163.918 225.718H133.775L146.865 143.318C148.647 129.079 136.59 123.084 136.59 123.084H191.212L202.836 182.02L231.963 123.084H275.861L262.771 205.485C261.023 219.423 273.046 225.868 273.046 225.868L229.365 225.718L237.941 172.195H237.975Z" fill="white"/>
<path d="M274.112 189.214L278.742 159.588C282.239 137.739 296.128 123.084 313.397 123.084H358.994C376.263 123.084 385.406 137.739 381.909 159.588L377.279 189.214C373.782 211.063 359.893 225.718 342.624 225.718H297.027C279.758 225.718 270.615 211.047 274.112 189.214ZM305.137 183.336C303.788 191.113 307.053 196.392 313.264 196.392H335.496C341.708 196.392 346.554 191.113 347.92 183.336L350.734 165.45C352.083 157.673 348.819 152.394 342.607 152.394H320.375C314.163 152.394 309.317 157.673 307.968 165.45L305.154 183.336H305.137Z" fill="white"/>
<path d="M393.183 143.318C394.715 129.312 382.908 122.934 382.908 122.934L474.334 123.084C488.106 123.084 495.434 134.808 492.619 152.261L491.037 161.936C488.556 177.324 479.63 188.332 468.122 190.68L485.392 225.718H453.684L426.139 170.146H454.467C457.514 170.146 459.996 167.648 460.562 163.701L461.461 158.855C462.027 154.892 460.445 152.411 457.398 152.411H421.96L413.5 205.484C411.751 219.423 423.775 225.868 423.775 225.868L380.093 225.718L393.183 143.318Z" fill="white"/>
<path d="M503.61 142.718C504.726 128.846 493.219 122.918 493.219 122.918L594.004 123.068L591.406 138.905C590.174 146.965 584.978 152.394 578.65 152.394H532.254L530.672 161.92H578.417L576.618 172.911C575.369 180.971 570.19 186.4 563.862 186.4H526.842L525.143 196.375H583.496L578.75 225.702H511.82C498.947 225.702 492.07 214.844 494.784 198.424L503.594 142.702L503.61 142.718Z" fill="white"/>
<path d="M64.8811 226.251L69.1276 207.816H0L7.84368 174.026L63.7486 123.85H117.189L53.7733 178.573H75.8389L79.6025 162.336H119.97L116.206 178.573H133.209L127.664 207.833H109.495L105.249 226.268H64.8811V226.251Z" fill="white"/>
</g>
</g>
<defs>
<clipPath id="clip0_158_1234">
<rect width="166" height="51" fill="white" transform="translate(0 243)"/>
</clipPath>
<clipPath id="clip1_158_1234">
<rect width="108" height="51" fill="white" transform="translate(230 243)"/>
</clipPath>
<clipPath id="clip2_158_1234">
<rect width="196" height="51" fill="white" transform="translate(402 243)"/>
</clipPath>
<clipPath id="clip3_158_1234">
<rect width="600" height="226.251" fill="white"/>
</clipPath>
<clipPath id="clip4_158_1234">
<rect width="600" height="226.251" fill="white"/>
</clipPath>
</defs>
</svg>
