<svg width="360" height="640" viewBox="0 0 360 640" fill="none" xmlns="http://www.w3.org/2000/svg">
<g clip-path="url(#clip0_1276_1001)">
<path opacity="0.1" d="M373.577 341.626L373.369 341.786L258.05 430.602L257.66 430.902L257.66 431.394L257.66 518.994L257.66 519.994L258.66 519.994L373.577 519.994L373.577 597.076L-14 597.076L-14 418.62C-14 369.24 0.726495 330.259 25.0249 303.635C49.3187 277.017 83.2501 262.671 121.83 262.671C177.004 262.671 222.641 291.636 244.59 344.785L245.105 346.033L246.149 345.177L373.577 240.668L373.577 341.626ZM59.2864 518.988L59.2805 519.994L60.2864 519.994L183.971 519.994L184.971 519.994L184.971 518.994L184.971 416.186C184.971 389.229 177.295 370.401 165.569 358.307C153.846 346.217 138.183 340.97 122.427 340.97C107.248 340.97 91.5935 346.535 79.7345 358.764C67.869 370.999 59.8845 389.819 59.8839 416.183C59.8839 416.184 59.8839 416.185 59.8839 416.186L59.2864 518.988Z" stroke="#F1B497" stroke-width="2"/>
<path opacity="0.1" d="M305.668 1.91602C305.668 -29.2857 297.103 -54.201 280.668 -71.3196C264.226 -88.4443 240.037 -97.633 209.067 -97.633L-14 -97.633L-14 -174.716L209.067 -174.716C257.535 -174.716 299.54 -158.372 329.426 -128.171C359.311 -97.9715 377.162 -53.8316 377.162 1.91601C377.162 57.6636 359.311 101.804 329.426 132.003C299.54 162.204 257.535 178.548 209.067 178.548L-14 178.548L-14 101.465L209.067 101.465C240.033 101.465 264.223 92.4312 280.666 75.3814C297.104 58.3371 305.668 33.4197 305.668 1.91602Z" stroke="#F1B497" stroke-width="2"/>
</g>
<defs>
<clipPath id="clip0_1276_1001">
<rect width="360" height="640" fill="white"/>
</clipPath>
</defs>
</svg>
